# xmcd
#
# Track frame offsets:
#	150
#	10773
#	21653
#	34395
#	46065
#	57038
#	69088
#	82780
#	94885
#	107870
#
# Disc length: 1606 seconds
#
# Revision: 0
# Processed by: cddbd v1.5.2PL0 Copyright (c) Steve Scherf et al.
# Submitted via: dBpowerAMP V4.0
#
DISCID=7406440a
DTITLE=Jim Reeves - American Music Legends
DYEAR=2007
DGENRE=Country
TTITLE0=He'll Have To Go
TTITLE1=I Guess I'm Crazy
TTITLE2=Bimbo
TTITLE3=Welcome To My World
TTITLE4=Good Morning Self
TTITLE5=Am I Losing You
TTITLE6=Have You Ever Been Lonely (Have You Ever Been Blue) with Patsy Cline
TTITLE7=Mexican Joe
TTITLE8=Distant Drums
TTITLE9=Four Walls
EXTD=
EXTT0=
EXTT1=
EXTT2=
EXTT3=
EXTT4=
EXTT5=
EXTT6=
EXTT7=
EXTT8=
EXTT9=
PLAYORDER=
